Coordinates
version=1
nRows=12
nColumns=42
inDegrees=yes

Units are S.I. units (second, meters, Newtons, ...)
If the header above contains a line with 'inDegrees', this indicates whether rotational values are in degrees (yes) or radians (no).

endheader
time	pelvis_tilt	pelvis_list	pelvis_rotation	pelvis_tx	pelvis_ty	pelvis_tz	hip_flexion_r	hip_adduction_r	hip_rotation_r	knee_angle_r	knee_adduction_r	knee_angle_r_beta	ankle_angle_r	subtalar_angle_r	mtp_angle_r	hip_flexion_l	hip_adduction_l	hip_rotation_l	knee_angle_l	knee_adduction_l	knee_angle_l_beta	ankle_angle_l	subtalar_angle_l	mtp_angle_l	lumbar_extension	lumbar_bending	lumbar_rotation	arm_flex_r	arm_add_r	arm_rot_r	elbow_flex_r	pro_sup_r	wrist_flex_r	wrist_dev_r	arm_flex_l	arm_add_l	arm_rot_l	elbow_flex_l	pro_sup_l	wrist_flex_l	wrist_dev_l
      0.00000000	     -7.11829491	     -1.82184433	      3.21534238	     -1.78212072	      0.96065689	     -0.10843924	     16.47249115	      0.83923895	     -7.35304487	     58.88281250	     -0.51326340	      1.02769895	      4.66632609	    -17.15554562	     -9.64366835	     16.02123888	      2.22037513	      4.80996633	     13.17089982	     -3.50622645	      0.22987557	      9.85865848	      0.36429892	     -9.64366835	     -4.12888611	     -2.87290490	     -4.12025900	     -8.12765106	     -9.44142553	     -1.18697124	     23.44835180	     90.00000001	      0.00000000	      0.00000000	      4.25897594	    -16.60254862	      1.00586656	     28.81764313	     90.00000001	      0.00000000	      0.00000000
      0.01000000	     -7.12076684	     -2.00352437	      3.33279151	     -1.77192795	      0.96163508	     -0.10938986	     17.97591381	      0.97180426	     -6.87741409	     58.77460348	     -0.25818178	      1.02581035	      5.33614541	    -17.03448101	     -9.61086743	     15.00135284	      2.12798963	      4.88554628	     12.54582634	     -3.69634817	      0.21896598	     10.30323768	      0.69461451	     -9.61086743	     -4.02969962	     -2.49019588	     -4.40010756	     -8.47640996	     -9.27035643	     -1.20971202	     22.78522341	     90.00000001	      0.00000000	      0.00000000	      4.97649294	    -16.64653896	      1.18915430	     29.58042496	     90.00000001	      0.00000000	      0.00000000
      0.02000000	     -7.13468840	     -2.11718029	      3.44343657	     -1.76155718	      0.96240562	     -0.11039751	     19.38682295	      0.98625887	     -6.32759957	     58.35687118	      0.10448911	      1.01851954	      5.88240159	    -16.96471421	     -9.57966471	     13.93741089	      2.11028408	      4.96409099	     11.84819268	     -3.91169680	      0.20678997	     10.68959895	      1.02168048	     -9.57966471	     -3.90128451	     -2.18957124	     -4.65025004	     -8.86777201	     -9.09007633	     -1.38916573	     22.13377401	     90.00000001	      0.00000000	      0.00000000	      5.59977971	    -16.72672117	      1.48536332	     30.45081435	     90.00000001	      0.00000000	      0.00000000
      0.03000000	     -7.11021212	     -2.14897482	      3.53865703	     -1.75126311	      0.96302574	     -0.11123631	     20.68955418	      0.97457597	     -5.70790259	     57.65995304	      0.42088166	      1.00635603	      6.32717456	    -17.01751704	     -9.54786111	     12.79256660	      2.15308117	      5.09377633	     11.07377256	     -4.09322781	      0.19327379	     11.04662583	      1.33946579	     -9.54786111	     -3.84595798	     -1.99662173	     -4.88625842	     -9.22574290	     -8.83900829	     -1.71661424	     21.54402943	     90.00000001	      0.00000000	      0.00000000	      6.20734921	    -16.90105772	      1.88370573	     31.41713364	     90.00000001	      0.00000000	      0.00000000
      0.04000000	     -6.65034554	     -2.11175864	      3.62604880	     -1.74077286	      0.96406391	     -0.11187908	     21.35011131	      0.93440431	     -5.02075619	     56.59976128	      0.81030968	      0.98785219	      6.48766623	    -17.29615926	     -9.44156865	     10.91018166	      2.21270350	      5.53930568	      9.87741666	     -4.25318448	      0.17239344	     10.99342723	      1.26128594	     -9.44156865	     -4.32972803	     -1.87479777	     -5.01730927	     -9.41204309	     -8.39585714	     -3.22070165	     20.80399184	     90.00000001	      0.00000000	      0.00000000	      6.81308212	    -17.34280911	      3.15887324	     32.72692361	     90.00000001	      0.00000000	      0.00000000
      0.05000000	     -6.75452753	     -2.04607794	      3.78340429	     -1.73051469	      0.96401761	     -0.11279440	     22.67521262	      0.78110956	     -4.93709811	     55.43235139	      0.70089285	      0.96747704	      6.76419721	    -17.12181759	     -9.42043675	     10.16802729	      2.38042034	      5.36388219	      9.61590880	     -4.42223138	      0.16782927	     11.31966085	      1.38845528	     -9.42043675	     -4.13915946	     -1.80790320	     -5.26242479	     -9.96515386	     -8.22534920	     -3.26546118	     20.55893763	     90.00000001	      0.00000000	      0.00000000	      7.51484400	    -17.40325180	      3.20334032	     33.43005086	     90.00000001	      0.00000000	      0.00000000
      0.06000000	     -6.33336968	     -2.12604448	      3.90155082	     -1.71996784	      0.96453921	     -0.11342817	     23.19972371	      0.95912860	     -4.49229128	     53.80829102	      0.78344935	      0.93913184	      6.91080423	    -17.57947632	     -9.36112436	      8.23331011	      2.28249321	      6.02239277	      8.18747887	     -4.58065045	      0.14289846	     11.63973770	      1.81543067	     -9.36112436	     -4.57036580	     -1.54142469	     -5.52456647	    -10.16503017	     -7.96287111	     -4.08884079	     20.02899260	     90.00000001	      0.00000000	      0.00000000	      8.00541881	    -17.77254386	      3.95489530	     34.74725208	     90.00000001	      0.00000000	      0.00000000
      0.07000000	     -5.97025005	     -2.13515367	      4.08650384	     -1.70938566	      0.96472341	     -0.11413109	     23.71099313	      1.04540176	     -4.59775468	     51.94366688	      0.41719609	      0.90658801	      7.10483753	    -17.62980421	     -9.28262582	      6.60938716	      2.29664971	      6.36895910	      7.26769046	     -4.77388937	      0.12684513	     11.85562023	      1.83064392	     -9.28262582	     -4.93178449	     -1.36489335	     -5.75772726	    -10.50505516	     -7.71010385	     -4.85090541	     19.70873189	     90.00000001	      0.00000000	      0.00000000	      8.67220763	    -18.04082626	      4.57549579	     35.70909781	     90.00000001	      0.00000000	      0.00000000
      0.08000000	     -5.99146771	     -2.06487325	      4.22810444	     -1.69910218	      0.96407529	     -0.11483575	     24.66684849	      0.99414117	     -4.50354754	     50.04286093	      0.20847403	      0.87341269	      7.34469862	    -17.68658458	     -9.24430005	      5.55138709	      2.43009062	      6.63819125	      6.58243896	     -4.95325445	      0.11488523	     12.36044746	      2.07916123	     -9.24430005	     -4.86993482	     -1.29977711	     -6.01792792	    -10.93038478	     -7.54202960	     -5.10409408	     19.52161061	     90.00000001	      0.00000000	      0.00000000	      9.26511927	    -18.23778665	      4.86694269	     36.58658765	     90.00000001	      0.00000000	      0.00000000
      0.09000000	     -5.74790298	     -1.98054361	      4.39390274	     -1.68861878	      0.96362950	     -0.11550856	     25.13658253	      0.97605852	     -4.48828588	     47.75482365	     -0.07447146	      0.83347891	      7.37670116	    -17.73920114	     -9.20003626	      4.11978836	      2.51437845	      6.91565333	      5.76647436	     -5.07578001	      0.10064396	     12.68348543	      2.26637640	     -9.20003626	     -5.11871414	     -1.22681984	     -6.29277704	    -11.28406786	     -7.36374679	     -5.48586767	     19.37232967	     90.00000001	      0.00000000	      0.00000000	      9.85805229	    -18.52699916	      5.40531695	     37.48932457	     90.00000001	      0.00000000	      0.00000000
      0.10000000	     -5.39733284	     -1.90120078	      4.56818188	     -1.67804708	      0.96308748	     -0.11603391	     25.37630523	      1.02447228	     -4.59521107	     45.21149875	     -0.49049569	      0.78908951	      7.33853062	    -17.68329725	     -9.14166513	      2.57560601	      2.57402000	      7.17498267	      4.99356588	     -5.22106876	      0.08715417	     12.90634216	      2.28607301	     -9.14166513	     -5.49556758	     -1.15500532	     -6.51461654	    -11.65000591	     -7.16216855	     -5.89153756	     19.25869829	     90.00000001	      0.00000000	      0.00000000	     10.52511875	    -18.81195879	      5.99429965	     38.34453208	     90.00000001	      0.00000000	      0.00000000
      0.11000000	     -5.19661450	     -1.76695035	      4.70588101	     -1.66759194	      0.96210625	     -0.11657924	     25.72195279	      1.01036415	     -4.58509139	     42.52168640	     -0.85549165	      0.74214343	      7.26684482	    -17.56767953	     -9.07253590	      1.24563965	      2.72898322	      7.42650429	      4.32287449	     -5.40221611	      0.07544839	     13.19843773	      2.24752431	     -9.07253590	     -5.71441188	     -1.14547281	     -6.73976753	    -12.00310376	     -7.00580254	     -6.15881645	     19.20583378	     90.00000001	      0.00000000	      0.00000000	     11.14539091	    -19.07599379	      6.48817920	     39.09007699	     90.00000001	      0.00000000	      0.00000000
